%TF.GenerationSoftware,KiCad,Pcbnew,10.0.3*%
%TF.CreationDate,2026-06-16T14:28:38+08:00*%
%TF.ProjectId,111,3131312e-6b69-4636-9164-5f7063625858,rev?*%
%TF.SameCoordinates,Original*%
%TF.FileFunction,Legend,Top*%
%TF.FilePolarity,Positive*%
%FSLAX46Y46*%
G04 Gerber Fmt 4.6, Leading zero omitted, Abs format (unit mm)*
G04 Created by KiCad (PCBNEW 10.0.3) date 2026-06-16 14:28:38*
%MOMM*%
%LPD*%
G01*
G04 APERTURE LIST*
%ADD10C,0.150000*%
%ADD11C,0.120000*%
G04 APERTURE END LIST*
D10*
X89333333Y-137804819D02*
X89000000Y-137328628D01*
X88761905Y-137804819D02*
X88761905Y-136804819D01*
X88761905Y-136804819D02*
X89142857Y-136804819D01*
X89142857Y-136804819D02*
X89238095Y-136852438D01*
X89238095Y-136852438D02*
X89285714Y-136900057D01*
X89285714Y-136900057D02*
X89333333Y-136995295D01*
X89333333Y-136995295D02*
X89333333Y-137138152D01*
X89333333Y-137138152D02*
X89285714Y-137233390D01*
X89285714Y-137233390D02*
X89238095Y-137281009D01*
X89238095Y-137281009D02*
X89142857Y-137328628D01*
X89142857Y-137328628D02*
X88761905Y-137328628D01*
X89714286Y-136900057D02*
X89761905Y-136852438D01*
X89761905Y-136852438D02*
X89857143Y-136804819D01*
X89857143Y-136804819D02*
X90095238Y-136804819D01*
X90095238Y-136804819D02*
X90190476Y-136852438D01*
X90190476Y-136852438D02*
X90238095Y-136900057D01*
X90238095Y-136900057D02*
X90285714Y-136995295D01*
X90285714Y-136995295D02*
X90285714Y-137090533D01*
X90285714Y-137090533D02*
X90238095Y-137233390D01*
X90238095Y-137233390D02*
X89666667Y-137804819D01*
X89666667Y-137804819D02*
X90285714Y-137804819D01*
X89833333Y-104804819D02*
X89500000Y-104328628D01*
X89261905Y-104804819D02*
X89261905Y-103804819D01*
X89261905Y-103804819D02*
X89642857Y-103804819D01*
X89642857Y-103804819D02*
X89738095Y-103852438D01*
X89738095Y-103852438D02*
X89785714Y-103900057D01*
X89785714Y-103900057D02*
X89833333Y-103995295D01*
X89833333Y-103995295D02*
X89833333Y-104138152D01*
X89833333Y-104138152D02*
X89785714Y-104233390D01*
X89785714Y-104233390D02*
X89738095Y-104281009D01*
X89738095Y-104281009D02*
X89642857Y-104328628D01*
X89642857Y-104328628D02*
X89261905Y-104328628D01*
X90785714Y-104804819D02*
X90214286Y-104804819D01*
X90500000Y-104804819D02*
X90500000Y-103804819D01*
X90500000Y-103804819D02*
X90404762Y-103947676D01*
X90404762Y-103947676D02*
X90309524Y-104042914D01*
X90309524Y-104042914D02*
X90214286Y-104090533D01*
X79666666Y-96684819D02*
X79666666Y-97399104D01*
X79666666Y-97399104D02*
X79619047Y-97541961D01*
X79619047Y-97541961D02*
X79523809Y-97637200D01*
X79523809Y-97637200D02*
X79380952Y-97684819D01*
X79380952Y-97684819D02*
X79285714Y-97684819D01*
X80571428Y-97018152D02*
X80571428Y-97684819D01*
X80333333Y-96637200D02*
X80095238Y-97351485D01*
X80095238Y-97351485D02*
X80714285Y-97351485D01*
X79666666Y-135064819D02*
X79666666Y-135779104D01*
X79666666Y-135779104D02*
X79619047Y-135921961D01*
X79619047Y-135921961D02*
X79523809Y-136017200D01*
X79523809Y-136017200D02*
X79380952Y-136064819D01*
X79380952Y-136064819D02*
X79285714Y-136064819D01*
X80047619Y-135064819D02*
X80666666Y-135064819D01*
X80666666Y-135064819D02*
X80333333Y-135445771D01*
X80333333Y-135445771D02*
X80476190Y-135445771D01*
X80476190Y-135445771D02*
X80571428Y-135493390D01*
X80571428Y-135493390D02*
X80619047Y-135541009D01*
X80619047Y-135541009D02*
X80666666Y-135636247D01*
X80666666Y-135636247D02*
X80666666Y-135874342D01*
X80666666Y-135874342D02*
X80619047Y-135969580D01*
X80619047Y-135969580D02*
X80571428Y-136017200D01*
X80571428Y-136017200D02*
X80476190Y-136064819D01*
X80476190Y-136064819D02*
X80190476Y-136064819D01*
X80190476Y-136064819D02*
X80095238Y-136017200D01*
X80095238Y-136017200D02*
X80047619Y-135969580D01*
X125166666Y-96684819D02*
X125166666Y-97399104D01*
X125166666Y-97399104D02*
X125119047Y-97541961D01*
X125119047Y-97541961D02*
X125023809Y-97637200D01*
X125023809Y-97637200D02*
X124880952Y-97684819D01*
X124880952Y-97684819D02*
X124785714Y-97684819D01*
X125595238Y-96780057D02*
X125642857Y-96732438D01*
X125642857Y-96732438D02*
X125738095Y-96684819D01*
X125738095Y-96684819D02*
X125976190Y-96684819D01*
X125976190Y-96684819D02*
X126071428Y-96732438D01*
X126071428Y-96732438D02*
X126119047Y-96780057D01*
X126119047Y-96780057D02*
X126166666Y-96875295D01*
X126166666Y-96875295D02*
X126166666Y-96970533D01*
X126166666Y-96970533D02*
X126119047Y-97113390D01*
X126119047Y-97113390D02*
X125547619Y-97684819D01*
X125547619Y-97684819D02*
X126166666Y-97684819D01*
X99666666Y-96684819D02*
X99666666Y-97399104D01*
X99666666Y-97399104D02*
X99619047Y-97541961D01*
X99619047Y-97541961D02*
X99523809Y-97637200D01*
X99523809Y-97637200D02*
X99380952Y-97684819D01*
X99380952Y-97684819D02*
X99285714Y-97684819D01*
X100666666Y-97684819D02*
X100095238Y-97684819D01*
X100380952Y-97684819D02*
X100380952Y-96684819D01*
X100380952Y-96684819D02*
X100285714Y-96827676D01*
X100285714Y-96827676D02*
X100190476Y-96922914D01*
X100190476Y-96922914D02*
X100095238Y-96970533D01*
X89833333Y-145679580D02*
X89785714Y-145727200D01*
X89785714Y-145727200D02*
X89642857Y-145774819D01*
X89642857Y-145774819D02*
X89547619Y-145774819D01*
X89547619Y-145774819D02*
X89404762Y-145727200D01*
X89404762Y-145727200D02*
X89309524Y-145631961D01*
X89309524Y-145631961D02*
X89261905Y-145536723D01*
X89261905Y-145536723D02*
X89214286Y-145346247D01*
X89214286Y-145346247D02*
X89214286Y-145203390D01*
X89214286Y-145203390D02*
X89261905Y-145012914D01*
X89261905Y-145012914D02*
X89309524Y-144917676D01*
X89309524Y-144917676D02*
X89404762Y-144822438D01*
X89404762Y-144822438D02*
X89547619Y-144774819D01*
X89547619Y-144774819D02*
X89642857Y-144774819D01*
X89642857Y-144774819D02*
X89785714Y-144822438D01*
X89785714Y-144822438D02*
X89833333Y-144870057D01*
X90214286Y-144870057D02*
X90261905Y-144822438D01*
X90261905Y-144822438D02*
X90357143Y-144774819D01*
X90357143Y-144774819D02*
X90595238Y-144774819D01*
X90595238Y-144774819D02*
X90690476Y-144822438D01*
X90690476Y-144822438D02*
X90738095Y-144870057D01*
X90738095Y-144870057D02*
X90785714Y-144965295D01*
X90785714Y-144965295D02*
X90785714Y-145060533D01*
X90785714Y-145060533D02*
X90738095Y-145203390D01*
X90738095Y-145203390D02*
X90166667Y-145774819D01*
X90166667Y-145774819D02*
X90785714Y-145774819D01*
X89833333Y-113679580D02*
X89785714Y-113727200D01*
X89785714Y-113727200D02*
X89642857Y-113774819D01*
X89642857Y-113774819D02*
X89547619Y-113774819D01*
X89547619Y-113774819D02*
X89404762Y-113727200D01*
X89404762Y-113727200D02*
X89309524Y-113631961D01*
X89309524Y-113631961D02*
X89261905Y-113536723D01*
X89261905Y-113536723D02*
X89214286Y-113346247D01*
X89214286Y-113346247D02*
X89214286Y-113203390D01*
X89214286Y-113203390D02*
X89261905Y-113012914D01*
X89261905Y-113012914D02*
X89309524Y-112917676D01*
X89309524Y-112917676D02*
X89404762Y-112822438D01*
X89404762Y-112822438D02*
X89547619Y-112774819D01*
X89547619Y-112774819D02*
X89642857Y-112774819D01*
X89642857Y-112774819D02*
X89785714Y-112822438D01*
X89785714Y-112822438D02*
X89833333Y-112870057D01*
X90785714Y-113774819D02*
X90214286Y-113774819D01*
X90500000Y-113774819D02*
X90500000Y-112774819D01*
X90500000Y-112774819D02*
X90404762Y-112917676D01*
X90404762Y-112917676D02*
X90309524Y-113012914D01*
X90309524Y-113012914D02*
X90214286Y-113060533D01*
%TO.C,R2*%
D11*
X89272936Y-138265000D02*
X89727064Y-138265000D01*
X89272936Y-139735000D02*
X89727064Y-139735000D01*
%TO.C,R1*%
X89772936Y-105265000D02*
X90227064Y-105265000D01*
X89772936Y-106735000D02*
X90227064Y-106735000D01*
%TO.C,J4*%
X78670000Y-101270000D02*
X78670000Y-119110000D01*
X78670000Y-101270000D02*
X81330000Y-101270000D01*
X78670000Y-119110000D02*
X81330000Y-119110000D01*
X80000000Y-98670000D02*
X81330000Y-98670000D01*
X81330000Y-98670000D02*
X81330000Y-100000000D01*
X81330000Y-101270000D02*
X81330000Y-119110000D01*
%TO.C,J3*%
X78670000Y-139650000D02*
X78670000Y-149870000D01*
X78670000Y-139650000D02*
X81330000Y-139650000D01*
X78670000Y-149870000D02*
X81330000Y-149870000D01*
X80000000Y-137050000D02*
X81330000Y-137050000D01*
X81330000Y-137050000D02*
X81330000Y-138380000D01*
X81330000Y-139650000D02*
X81330000Y-149870000D01*
%TO.C,J2*%
X124170000Y-101270000D02*
X124170000Y-154670000D01*
X124170000Y-101270000D02*
X126830000Y-101270000D01*
X124170000Y-154670000D02*
X126830000Y-154670000D01*
X125500000Y-98670000D02*
X126830000Y-98670000D01*
X126830000Y-98670000D02*
X126830000Y-100000000D01*
X126830000Y-101270000D02*
X126830000Y-154670000D01*
%TO.C,J1*%
X98670000Y-101270000D02*
X98670000Y-154670000D01*
X98670000Y-101270000D02*
X101330000Y-101270000D01*
X98670000Y-154670000D02*
X101330000Y-154670000D01*
X100000000Y-98670000D02*
X101330000Y-98670000D01*
X101330000Y-98670000D02*
X101330000Y-100000000D01*
X101330000Y-101270000D02*
X101330000Y-154670000D01*
%TO.C,C2*%
X89738748Y-146265000D02*
X90261252Y-146265000D01*
X89738748Y-147735000D02*
X90261252Y-147735000D01*
%TO.C,C1*%
X89738748Y-114265000D02*
X90261252Y-114265000D01*
X89738748Y-115735000D02*
X90261252Y-115735000D01*
%TD*%
M02*
