%TF.GenerationSoftware,KiCad,Pcbnew,10.0.3*%
%TF.CreationDate,2026-06-16T14:28:38+08:00*%
%TF.ProjectId,111,3131312e-6b69-4636-9164-5f7063625858,rev?*%
%TF.SameCoordinates,Original*%
%TF.FileFunction,Copper,L2,Bot*%
%TF.FilePolarity,Positive*%
%FSLAX46Y46*%
G04 Gerber Fmt 4.6, Leading zero omitted, Abs format (unit mm)*
G04 Created by KiCad (PCBNEW 10.0.3) date 2026-06-16 14:28:38*
%MOMM*%
%LPD*%
G01*
G04 APERTURE LIST*
%TA.AperFunction,ComponentPad*%
%ADD10R,1.700000X1.700000*%
%TD*%
%TA.AperFunction,ComponentPad*%
%ADD11C,1.700000*%
%TD*%
%TA.AperFunction,ViaPad*%
%ADD12C,0.600000*%
%TD*%
%TA.AperFunction,Conductor*%
%ADD13C,0.200000*%
%TD*%
G04 APERTURE END LIST*
D10*
%TO.P,J4,1,Pin_1_1*%
%TO.N,/VCC*%
X80000000Y-100000000D03*
D11*
%TO.P,J4,2,Pin_2_2*%
%TO.N,/GND*%
X80000000Y-102540000D03*
%TO.P,J4,3,Pin_3_3*%
%TO.N,/SCL*%
X80000000Y-105080000D03*
%TO.P,J4,4,Pin_4_4*%
%TO.N,/SDA*%
X80000000Y-107620000D03*
%TO.P,J4,5,Pin_5_5*%
%TO.N,unconnected-(J4-Pin_5-Pad5)*%
X80000000Y-110160000D03*
%TO.P,J4,6,Pin_6_6*%
%TO.N,unconnected-(J4-Pin_6-Pad6)*%
X80000000Y-112700000D03*
%TO.P,J4,7,Pin_7_7*%
%TO.N,unconnected-(J4-Pin_7-Pad7)*%
X80000000Y-115240000D03*
%TO.P,J4,8,Pin_8_8*%
%TO.N,unconnected-(J4-Pin_8-Pad8)*%
X80000000Y-117780000D03*
%TD*%
D10*
%TO.P,J3,1,Pin_1_1*%
%TO.N,/VCC*%
X80000000Y-138380000D03*
D11*
%TO.P,J3,2,Pin_2_2*%
%TO.N,/GND*%
X80000000Y-140920000D03*
%TO.P,J3,3,Pin_3_3*%
%TO.N,/SCL*%
X80000000Y-143460000D03*
%TO.P,J3,4,Pin_4_4*%
%TO.N,/SDA*%
X80000000Y-146000000D03*
%TO.P,J3,5,Pin_5_5*%
%TO.N,unconnected-(J3-Pin_5-Pad5)*%
X80000000Y-148540000D03*
%TD*%
D10*
%TO.P,J2,1,Pin_1_1*%
%TO.N,unconnected-(J2-Pin_1-Pad1)*%
X125500000Y-100000000D03*
D11*
%TO.P,J2,2,Pin_2_2*%
%TO.N,unconnected-(J2-Pin_2-Pad2)*%
X125500000Y-102540000D03*
%TO.P,J2,3,Pin_3_3*%
%TO.N,unconnected-(J2-Pin_3-Pad3)*%
X125500000Y-105080000D03*
%TO.P,J2,4,Pin_4_4*%
%TO.N,unconnected-(J2-Pin_4-Pad4)*%
X125500000Y-107620000D03*
%TO.P,J2,5,Pin_5_5*%
%TO.N,unconnected-(J2-Pin_5-Pad5)*%
X125500000Y-110160000D03*
%TO.P,J2,6,Pin_6_6*%
%TO.N,unconnected-(J2-Pin_6-Pad6)*%
X125500000Y-112700000D03*
%TO.P,J2,7,Pin_7_7*%
%TO.N,unconnected-(J2-Pin_7-Pad7)*%
X125500000Y-115240000D03*
%TO.P,J2,8,Pin_8_8*%
%TO.N,unconnected-(J2-Pin_8-Pad8)*%
X125500000Y-117780000D03*
%TO.P,J2,9,Pin_9_9*%
%TO.N,unconnected-(J2-Pin_9-Pad9)*%
X125500000Y-120320000D03*
%TO.P,J2,10,Pin_10_10*%
%TO.N,unconnected-(J2-Pin_10-Pad10)*%
X125500000Y-122860000D03*
%TO.P,J2,11,Pin_11_11*%
%TO.N,unconnected-(J2-Pin_11-Pad11)*%
X125500000Y-125400000D03*
%TO.P,J2,12,Pin_12_12*%
%TO.N,unconnected-(J2-Pin_12-Pad12)*%
X125500000Y-127940000D03*
%TO.P,J2,13,Pin_13_13*%
%TO.N,unconnected-(J2-Pin_13-Pad13)*%
X125500000Y-130480000D03*
%TO.P,J2,14,Pin_14_14*%
%TO.N,unconnected-(J2-Pin_14-Pad14)*%
X125500000Y-133020000D03*
%TO.P,J2,15,Pin_15_15*%
%TO.N,unconnected-(J2-Pin_15-Pad15)*%
X125500000Y-135560000D03*
%TO.P,J2,16,Pin_16_16*%
%TO.N,unconnected-(J2-Pin_16-Pad16)*%
X125500000Y-138100000D03*
%TO.P,J2,17,Pin_17_17*%
%TO.N,unconnected-(J2-Pin_17-Pad17)*%
X125500000Y-140640000D03*
%TO.P,J2,18,Pin_18_18*%
%TO.N,unconnected-(J2-Pin_18-Pad18)*%
X125500000Y-143180000D03*
%TO.P,J2,19,Pin_19_19*%
%TO.N,unconnected-(J2-Pin_19-Pad19)*%
X125500000Y-145720000D03*
%TO.P,J2,20,Pin_20_20*%
%TO.N,unconnected-(J2-Pin_20-Pad20)*%
X125500000Y-148260000D03*
%TO.P,J2,21,Pin_21_21*%
%TO.N,unconnected-(J2-Pin_21-Pad21)*%
X125500000Y-150800000D03*
%TO.P,J2,22,Pin_22_22*%
%TO.N,unconnected-(J2-Pin_22-Pad22)*%
X125500000Y-153340000D03*
%TD*%
D10*
%TO.P,J1,1,Pin_1_1*%
%TO.N,/VCC*%
X100000000Y-100000000D03*
D11*
%TO.P,J1,2,Pin_2_2*%
%TO.N,unconnected-(J1-Pin_2-Pad2)*%
X100000000Y-102540000D03*
%TO.P,J1,3,Pin_3_3*%
%TO.N,unconnected-(J1-Pin_3-Pad3)*%
X100000000Y-105080000D03*
%TO.P,J1,4,Pin_4_4*%
%TO.N,unconnected-(J1-Pin_4-Pad4)*%
X100000000Y-107620000D03*
%TO.P,J1,5,Pin_5_5*%
%TO.N,unconnected-(J1-Pin_5-Pad5)*%
X100000000Y-110160000D03*
%TO.P,J1,6,Pin_6_6*%
%TO.N,unconnected-(J1-Pin_6-Pad6)*%
X100000000Y-112700000D03*
%TO.P,J1,7,Pin_7_7*%
%TO.N,unconnected-(J1-Pin_7-Pad7)*%
X100000000Y-115240000D03*
%TO.P,J1,8,Pin_8_8*%
%TO.N,unconnected-(J1-Pin_8-Pad8)*%
X100000000Y-117780000D03*
%TO.P,J1,9,Pin_9_9*%
%TO.N,unconnected-(J1-Pin_9-Pad9)*%
X100000000Y-120320000D03*
%TO.P,J1,10,Pin_10_10*%
%TO.N,unconnected-(J1-Pin_10-Pad10)*%
X100000000Y-122860000D03*
%TO.P,J1,11,Pin_11_11*%
%TO.N,unconnected-(J1-Pin_11-Pad11)*%
X100000000Y-125400000D03*
%TO.P,J1,12,Pin_12_12*%
%TO.N,/SDA*%
X100000000Y-127940000D03*
%TO.P,J1,13,Pin_13_13*%
%TO.N,unconnected-(J1-Pin_13-Pad13)*%
X100000000Y-130480000D03*
%TO.P,J1,14,Pin_14_14*%
%TO.N,unconnected-(J1-Pin_14-Pad14)*%
X100000000Y-133020000D03*
%TO.P,J1,15,Pin_15_15*%
%TO.N,/SCL*%
X100000000Y-135560000D03*
%TO.P,J1,16,Pin_16_16*%
%TO.N,unconnected-(J1-Pin_16-Pad16)*%
X100000000Y-138100000D03*
%TO.P,J1,17,Pin_17_17*%
%TO.N,unconnected-(J1-Pin_17-Pad17)*%
X100000000Y-140640000D03*
%TO.P,J1,18,Pin_18_18*%
%TO.N,unconnected-(J1-Pin_18-Pad18)*%
X100000000Y-143180000D03*
%TO.P,J1,19,Pin_19_19*%
%TO.N,unconnected-(J1-Pin_19-Pad19)*%
X100000000Y-145720000D03*
%TO.P,J1,20,Pin_20_20*%
%TO.N,unconnected-(J1-Pin_20-Pad20)*%
X100000000Y-148260000D03*
%TO.P,J1,21,Pin_21_21*%
%TO.N,unconnected-(J1-Pin_21-Pad21)*%
X100000000Y-150800000D03*
%TO.P,J1,22,Pin_22_22*%
%TO.N,/GND*%
X100000000Y-153340000D03*
%TD*%
D12*
%TO.N,/SDA*%
X90470000Y-137470000D03*
%TO.N,/SCL*%
X83000000Y-107500000D03*
X97000000Y-105000000D03*
%TD*%
%TO.N,/SDA*%
D13*
X100000000Y-127940000D02*
X90412500Y-137527500D01*
%TO.N,/SCL*%
X83000000Y-105080000D02*
X83000000Y-107500000D01*
X83000000Y-105080000D02*
X80000000Y-105080000D01*
X96920000Y-105080000D02*
X83000000Y-105080000D01*
X97000000Y-105000000D02*
X96920000Y-105080000D01*
%TO.N,/SDA*%
X81940000Y-146000000D02*
X80000000Y-146000000D01*
X90412500Y-137527500D02*
X81940000Y-146000000D01*
X80000000Y-107940000D02*
X80000000Y-107620000D01*
X100000000Y-127940000D02*
X80000000Y-107940000D01*
%TD*%
M02*
