%TF.GenerationSoftware,KiCad,Pcbnew,10.0.3*%
%TF.CreationDate,2026-06-16T14:28:38+08:00*%
%TF.ProjectId,111,3131312e-6b69-4636-9164-5f7063625858,rev?*%
%TF.SameCoordinates,Original*%
%TF.FileFunction,Soldermask,Top*%
%TF.FilePolarity,Negative*%
%FSLAX46Y46*%
G04 Gerber Fmt 4.6, Leading zero omitted, Abs format (unit mm)*
G04 Created by KiCad (PCBNEW 10.0.3) date 2026-06-16 14:28:38*
%MOMM*%
%LPD*%
G01*
G04 APERTURE LIST*
G04 Aperture macros list*
%AMRoundRect*
0 Rectangle with rounded corners*
0 $1 Rounding radius*
0 $2 $3 $4 $5 $6 $7 $8 $9 X,Y pos of 4 corners*
0 Add a 4 corners polygon primitive as box body*
4,1,4,$2,$3,$4,$5,$6,$7,$8,$9,$2,$3,0*
0 Add four circle primitives for the rounded corners*
1,1,$1+$1,$2,$3*
1,1,$1+$1,$4,$5*
1,1,$1+$1,$6,$7*
1,1,$1+$1,$8,$9*
0 Add four rect primitives between the rounded corners*
20,1,$1+$1,$2,$3,$4,$5,0*
20,1,$1+$1,$4,$5,$6,$7,0*
20,1,$1+$1,$6,$7,$8,$9,0*
20,1,$1+$1,$8,$9,$2,$3,0*%
G04 Aperture macros list end*
%ADD10RoundRect,0.250000X-0.262500X-0.450000X0.262500X-0.450000X0.262500X0.450000X-0.262500X0.450000X0*%
%ADD11R,1.700000X1.700000*%
%ADD12C,1.700000*%
%ADD13RoundRect,0.250000X-0.250000X-0.475000X0.250000X-0.475000X0.250000X0.475000X-0.250000X0.475000X0*%
G04 APERTURE END LIST*
D10*
%TO.C,R2*%
X88587500Y-139000000D03*
X90412500Y-139000000D03*
%TD*%
%TO.C,R1*%
X89087500Y-106000000D03*
X90912500Y-106000000D03*
%TD*%
D11*
%TO.C,J4*%
X80000000Y-100000000D03*
D12*
X80000000Y-102540000D03*
X80000000Y-105080000D03*
X80000000Y-107620000D03*
X80000000Y-110160000D03*
X80000000Y-112700000D03*
X80000000Y-115240000D03*
X80000000Y-117780000D03*
%TD*%
D11*
%TO.C,J3*%
X80000000Y-138380000D03*
D12*
X80000000Y-140920000D03*
X80000000Y-143460000D03*
X80000000Y-146000000D03*
X80000000Y-148540000D03*
%TD*%
D11*
%TO.C,J2*%
X125500000Y-100000000D03*
D12*
X125500000Y-102540000D03*
X125500000Y-105080000D03*
X125500000Y-107620000D03*
X125500000Y-110160000D03*
X125500000Y-112700000D03*
X125500000Y-115240000D03*
X125500000Y-117780000D03*
X125500000Y-120320000D03*
X125500000Y-122860000D03*
X125500000Y-125400000D03*
X125500000Y-127940000D03*
X125500000Y-130480000D03*
X125500000Y-133020000D03*
X125500000Y-135560000D03*
X125500000Y-138100000D03*
X125500000Y-140640000D03*
X125500000Y-143180000D03*
X125500000Y-145720000D03*
X125500000Y-148260000D03*
X125500000Y-150800000D03*
X125500000Y-153340000D03*
%TD*%
D11*
%TO.C,J1*%
X100000000Y-100000000D03*
D12*
X100000000Y-102540000D03*
X100000000Y-105080000D03*
X100000000Y-107620000D03*
X100000000Y-110160000D03*
X100000000Y-112700000D03*
X100000000Y-115240000D03*
X100000000Y-117780000D03*
X100000000Y-120320000D03*
X100000000Y-122860000D03*
X100000000Y-125400000D03*
X100000000Y-127940000D03*
X100000000Y-130480000D03*
X100000000Y-133020000D03*
X100000000Y-135560000D03*
X100000000Y-138100000D03*
X100000000Y-140640000D03*
X100000000Y-143180000D03*
X100000000Y-145720000D03*
X100000000Y-148260000D03*
X100000000Y-150800000D03*
X100000000Y-153340000D03*
%TD*%
D13*
%TO.C,C2*%
X89050000Y-147000000D03*
X90950000Y-147000000D03*
%TD*%
%TO.C,C1*%
X89050000Y-115000000D03*
X90950000Y-115000000D03*
%TD*%
M02*
